<svg width="128" height="128" viewBox="0 0 128 128" fill="none" xmlns="http://www.w3.org/2000/svg">
  <rect width="128" height="128" rx="28" fill="#2a2a2a"/>
  <path fill="#d6d6d6" d="M57.06 52.48c0 9.12-1.98 18.12-5.82 26.58-3.72 8.2-8.94 14.44-13.24 19.06a4 4 0 0 1-5.84-5.46c4.08-4.36 8.6-9.78 11.8-16.82a55.15 55.15 0 0 0 4.24-15.18A18 18 0 1 1 57.06 52.48Zm-8 0a10 10 0 1 0-10 10 9.93 9.93 0 0 0 8.58-4.84c.64-1.6 1.12-3.32 1.42-5.16Zm46.78 0c0 9.12-1.98 18.12-5.82 26.58-3.72 8.2-8.94 14.44-13.24 19.06a4 4 0 1 1-5.84-5.46c4.08-4.36 8.6-9.78 11.8-16.82a55.15 55.15 0 0 0 4.24-15.18 18 18 0 1 1 8.86-8.18Zm-8 0a10 10 0 1 0-10 10 9.93 9.93 0 0 0 8.58-4.84c.64-1.6 1.12-3.32 1.42-5.16Z"/>
</svg>
